<svg width="122" height="32" viewBox="0 0 122 32" fill="none" xmlns="http://www.w3.org/2000/svg">
<path d="M121.675 5.54393C121.662 5.49869 121.648 5.45345 121.63 5.4082C110.912 5.41273 100.199 5.4082 89.4854 5.41273C89.4582 5.4444 89.4401 5.47607 89.4356 5.51678C89.4356 13.8278 89.4356 22.1342 89.431 30.4452C89.4989 30.8885 89.7432 31.2912 90.069 31.5943C90.0826 31.5989 90.1142 31.6033 90.1278 31.6079C90.2952 31.7842 90.535 31.8703 90.7612 31.9517C90.9286 31.9427 91.0915 32.015 91.2589 31.997H104.56C104.687 31.9924 104.818 32.0151 104.94 31.9653C104.945 31.9473 104.949 31.9156 104.954 31.8975C104.958 31.8748 104.963 31.8251 104.967 31.798C105.252 30.2055 105.528 28.6084 105.831 27.0159L105.859 26.8123C104.628 26.8077 103.393 26.8123 102.162 26.8077C101.864 26.7987 101.556 26.8077 101.257 26.7715C100.746 26.7489 100.23 26.767 99.7192 26.7172C99.0858 26.7172 98.457 26.6584 97.8236 26.6584C97.3259 26.6086 96.8237 26.6268 96.3216 26.6041C95.9959 26.5635 95.661 26.5815 95.3308 26.5679C94.7925 26.5091 94.245 26.5499 93.7067 26.491C93.1366 26.4956 92.5666 26.4458 91.9965 26.4322C92.001 26.4276 92.0055 26.4095 92.0055 26.405C92.1956 26.4095 92.3811 26.396 92.5711 26.3915C92.9918 26.3372 93.4171 26.3734 93.8379 26.3145C94.2767 26.3145 94.711 26.2558 95.1499 26.2558C95.539 26.2014 95.9326 26.2332 96.3216 26.1788C96.7786 26.1788 97.2264 26.12 97.6834 26.1155C98.0589 26.0657 98.439 26.0929 98.8145 26.0431C99.2533 26.0476 99.6877 25.9798 100.127 25.9843C100.556 25.9345 100.995 25.948 101.425 25.9027C101.384 25.7355 101.352 25.568 101.316 25.4006C101.285 25.2966 101.158 25.3192 101.077 25.3056C100.095 25.1652 99.1176 25.0251 98.1404 24.8894C98.2037 24.8395 98.2897 24.8621 98.3621 24.8531C99.1221 24.7943 99.8777 24.7264 100.638 24.6722C100.81 24.6632 100.977 24.6314 101.149 24.6269C101.072 24.3917 101.027 24.1338 100.923 23.9167C99.2987 23.6678 97.6744 23.4461 96.0547 23.1792C96.4755 23.1113 96.9007 23.0797 97.3215 23.0344L97.3577 23.0208C98.7014 22.8805 100.05 22.7221 101.393 22.591C103.099 22.582 104.8 22.5864 106.506 22.591C106.56 22.582 106.655 22.609 106.664 22.5322C106.804 21.7993 106.94 21.0664 107.08 20.3334C107.275 19.3155 107.582 18.3111 108.057 17.3837C108.804 15.8907 109.985 14.6239 111.423 13.7824C112.767 12.9952 114.323 12.6152 115.871 12.5428C116.373 12.4976 116.88 12.5111 117.377 12.5745C117.703 12.6514 118.038 12.7419 118.296 12.9635C118.508 13.1355 118.635 13.3888 118.73 13.6422C118.938 14.2439 119.056 14.8682 119.155 15.4971C119.16 15.7505 119.205 16.0355 119.069 16.2662C118.943 16.4924 118.689 16.601 118.45 16.6689C117.576 16.8951 116.662 16.6824 115.789 16.8951C115.07 17.0489 114.4 17.447 113.943 18.0216C113.405 18.6912 113.12 19.5235 112.962 20.3561C112.839 21.0981 112.686 21.84 112.563 22.5865C113.423 22.5911 114.287 22.582 115.151 22.5911C115.495 22.5911 115.848 22.7811 115.988 23.1068C116.169 23.5231 116.129 23.9936 116.07 24.4324C115.997 24.9256 115.88 25.4141 115.658 25.8666C115.472 26.2511 115.165 26.604 114.744 26.7398C114.527 26.8257 114.292 26.8076 114.061 26.8076C113.301 26.8076 112.541 26.8166 111.781 26.8076C111.659 27.3642 111.577 27.9342 111.469 28.4997C111.27 29.599 111.075 30.7029 110.876 31.8069C110.871 31.8431 110.867 31.92 110.867 31.9607C111.224 31.9788 111.582 31.9607 111.939 31.9697C114.59 31.9697 117.246 31.9651 119.902 31.9697C120.187 31.9788 120.476 31.9109 120.725 31.7707C120.874 31.7164 120.965 31.5852 121.096 31.5128C121.223 31.4404 121.259 31.2912 121.368 31.1961C121.485 30.988 121.607 30.7709 121.616 30.5265C121.63 30.5265 121.666 30.522 121.684 30.5175C121.671 22.193 121.684 13.8685 121.675 5.54393Z" fill="white" stroke="#FCD109" stroke-width="0.0186836"/>
<path d="M93.6521 0.0697294C94.0367 -0.0524244 94.4393 0.0290114 94.833 0.00186618C102.221 0.00639039 109.609 0.00186618 116.997 0.00186618C117.436 -0.0162307 117.82 0.232601 118.228 0.359279C118.553 0.490481 118.893 0.594538 119.218 0.734788C119.286 0.761934 119.336 0.820749 119.386 0.870515C119.381 1.46771 119.386 2.06943 119.386 2.67115C119.39 2.8295 119.363 2.99237 119.417 3.14619C119.512 3.15977 119.562 3.23215 119.626 3.29097C119.924 3.42669 120.177 3.64838 120.449 3.82935C120.856 4.1189 121.291 4.37225 121.689 4.67085C121.707 4.78848 121.693 4.91064 121.657 5.01922C121.616 5.1459 121.643 5.28162 121.63 5.4083C110.912 5.41282 100.199 5.4083 89.4852 5.41282C89.4626 5.26352 89.5033 5.11423 89.44 4.97397C89.4309 4.85635 89.3902 4.70252 89.5033 4.62109C89.9557 4.30439 90.4353 4.01937 90.8786 3.68457C91.1546 3.50813 91.4215 3.32716 91.6884 3.14619C91.7427 3.05571 91.7246 2.9426 91.7246 2.84307C91.7246 2.18706 91.7246 1.53105 91.7291 0.875039C91.883 0.675974 92.15 0.653353 92.3625 0.55382C92.7925 0.390948 93.2268 0.232601 93.6521 0.0697294ZM93.6792 0.146641C93.1001 0.368327 92.5165 0.580965 91.9374 0.802652C91.8605 0.816224 91.8197 0.884088 91.7791 0.942902C91.7836 0.979096 91.7881 1.04243 91.7881 1.07863C91.7835 1.62153 91.7881 2.16444 91.7835 2.70734C91.7881 2.84307 91.7699 2.9788 91.8197 3.10095C91.7609 3.15977 91.6976 3.21858 91.6252 3.26382C90.9691 3.6891 90.3358 4.15057 89.6797 4.57132C89.5666 4.63918 89.44 4.72967 89.4762 4.87897C89.4535 4.9604 89.4943 5.02827 89.5802 5.00564C91.0008 4.9966 92.4169 5.01469 93.8376 4.99207C95.9504 4.99207 98.0587 4.9966 100.171 4.99207L100.203 4.9785C100.298 5.00112 100.393 4.99207 100.493 4.99207C104.32 4.99207 108.148 4.9966 111.98 4.99207C113.183 4.9966 114.391 4.99207 115.599 4.99207C117.59 4.99207 119.585 5.01017 121.575 5.00112C121.634 4.98755 121.652 4.94683 121.63 4.87444C121.625 4.80205 121.652 4.70252 121.575 4.65728C121.259 4.50798 120.987 4.27725 120.684 4.09628C120.576 4.00579 120.435 3.95603 120.354 3.83387C120.042 3.65743 119.752 3.44027 119.444 3.24573C119.386 3.20953 119.34 3.15072 119.291 3.10095C119.318 3.00594 119.327 2.90189 119.327 2.80235C119.322 2.22778 119.327 1.6532 119.322 1.07863C119.336 0.988144 119.331 0.884088 119.25 0.825273C118.707 0.630732 118.169 0.422618 117.63 0.223553C117.463 0.142117 117.277 0.0968746 117.096 0.0697294H93.9731C93.8738 0.0742536 93.7788 0.12402 93.6792 0.146641Z" fill="white" stroke="#F8F3B5" stroke-width="0.0186836"/>
<path d="M91.7881 1.07886C92.1863 1.24625 92.6114 1.34126 93.0142 1.50413C93.2313 1.59009 93.2992 1.82535 93.3942 2.01537C93.2991 2.11038 93.186 2.18729 93.0729 2.25968C92.6567 2.54018 92.2314 2.81163 91.8197 3.10118C91.7699 2.97903 91.7881 2.8433 91.7835 2.70757C91.7881 2.16467 91.7836 1.62176 91.7881 1.07886ZM118.096 1.50413C118.499 1.34579 118.92 1.2372 119.322 1.07886C119.327 1.65343 119.322 2.22801 119.327 2.80258C119.327 2.90211 119.318 3.00617 119.291 3.10118C118.938 2.85687 118.581 2.62614 118.228 2.38635C118.056 2.25968 117.866 2.16467 117.712 2.01085C117.807 1.82083 117.879 1.59009 118.096 1.50413Z" fill="white" stroke="#F7B402" stroke-width="0.0186836"/>
<path d="M98.6921 1.68941C99.1898 1.57178 99.7463 2.01515 99.7056 2.53543C99.7101 3.04667 99.1716 3.4629 98.6786 3.34527C98.4795 3.2774 98.2894 3.17335 98.1673 2.9969C98.009 2.75712 97.9727 2.4359 98.0995 2.1735C98.19 1.92014 98.4343 1.74822 98.6921 1.68941ZM111.6 1.97443C111.808 1.7437 112.138 1.61249 112.446 1.69393C112.676 1.76179 112.903 1.91109 113.002 2.1373C113.201 2.52639 113.047 3.05119 112.658 3.25478C112.314 3.4448 111.88 3.35432 111.618 3.07834C111.351 2.77522 111.333 2.27755 111.6 1.97443Z" fill="white" stroke="#BDA727" stroke-width="0.0186836"/>
<path d="M93.0732 2.25933C93.1863 2.18694 93.2994 2.11003 93.3945 2.01502L93.4261 2.04669C93.4578 2.28195 93.4352 2.52173 93.4442 2.75699C93.4306 3.46277 93.4578 4.17307 93.4261 4.87885C92.1096 4.87885 90.7931 4.8698 89.4765 4.87885C89.4403 4.72955 89.567 4.63907 89.6801 4.5712C90.3361 4.15045 90.9695 3.68898 91.6255 3.2637C91.698 3.21846 91.7612 3.15965 91.82 3.10083C92.2317 2.81128 92.657 2.53983 93.0732 2.25933ZM117.667 2.16885C117.667 2.11003 117.68 2.06026 117.712 2.0105C117.866 2.16432 118.056 2.25933 118.228 2.38601C118.581 2.62579 118.938 2.85653 119.291 3.10083C119.341 3.1506 119.386 3.20941 119.445 3.24561C119.752 3.44015 120.042 3.65731 120.354 3.83376C120.436 3.95591 120.576 4.00568 120.684 4.09616C120.988 4.27713 121.259 4.50786 121.576 4.65716C121.653 4.7024 121.625 4.80194 121.63 4.87432C120.313 4.87885 119.001 4.8698 117.685 4.87885C117.662 4.69788 117.676 4.51691 117.671 4.34047C117.671 3.61659 117.662 2.89272 117.667 2.16885Z" fill="white" stroke="#F7E62D" stroke-width="0.0186836"/>
<path d="M121.63 4.87454C120.313 4.87906 119.001 4.87001 117.685 4.87906C117.662 4.69809 117.676 4.51713 117.671 4.34068C117.671 3.61681 117.662 2.89293 117.667 2.16906C117.667 2.11024 117.68 2.06048 117.712 2.01071C117.807 1.82069 117.879 1.58996 118.096 1.504C118.499 1.34565 118.92 1.23707 119.322 1.07872C119.336 0.988239 119.332 0.884183 119.25 0.825368C118.707 0.630827 118.169 0.422713 117.63 0.223648C117.463 0.142212 117.277 0.0969695 117.096 0.0698242H93.9732C93.8737 0.0743484 93.7787 0.124115 93.6791 0.146736C93.1 0.368422 92.5164 0.58106 91.9373 0.802747C91.8604 0.816319 91.8196 0.884183 91.779 0.942997C91.7835 0.979191 91.788 1.04253 91.788 1.07872C92.1861 1.24612 92.6113 1.34113 93.0141 1.504C93.2312 1.58996 93.2991 1.82522 93.3941 2.01524L93.4257 2.04691C93.4574 2.28216 93.4347 2.52195 93.4438 2.75721C93.4302 3.46298 93.4574 4.17328 93.4257 4.87906C92.1091 4.87906 90.7927 4.87001 89.476 4.87906C89.4534 4.9605 89.4941 5.02836 89.5801 5.00574C91.0007 4.99669 92.4168 5.01479 93.8375 4.99217C95.9503 4.99217 98.0586 4.99669 100.171 4.99217L100.203 4.97859C100.298 5.00122 100.393 4.99217 100.493 4.99217C104.32 4.99217 108.147 4.99669 111.979 4.99217C113.183 4.99669 114.391 4.99217 115.599 4.99217C117.589 4.99217 119.585 5.01026 121.575 5.00122C121.634 4.98764 121.652 4.94693 121.63 4.87454ZM98.0994 2.17358C98.1899 1.92023 98.4341 1.74831 98.692 1.68949C99.1897 1.57186 99.7462 2.01524 99.7055 2.53552C99.71 3.04676 99.1715 3.46298 98.6785 3.34535C98.4794 3.27749 98.2893 3.17343 98.1672 2.99699C98.0089 2.75721 97.9727 2.43599 98.0994 2.17358ZM111.6 1.97452C111.808 1.74378 112.138 1.61258 112.446 1.69402C112.676 1.76188 112.903 1.91118 113.002 2.13739C113.201 2.52647 113.047 3.05128 112.658 3.25487C112.314 3.44489 111.88 3.3544 111.618 3.07843C111.351 2.7753 111.333 2.27764 111.6 1.97452Z" fill="white" stroke="#FCD109" stroke-width="0.0186836"/>
<path d="M111.423 13.7826C112.767 12.9954 114.323 12.6154 115.87 12.543C116.373 12.4978 116.879 12.5113 117.377 12.5747C117.703 12.6516 118.038 12.7421 118.295 12.9638C118.164 12.9728 118.038 12.914 117.906 12.8959C117.535 12.8235 117.151 12.8506 116.775 12.8416C115.685 12.8416 114.586 12.9276 113.531 13.2262C112.98 13.3935 112.428 13.5881 111.925 13.8776C111.057 14.3572 110.274 14.9906 109.641 15.7507C108.51 17.0492 107.845 18.6959 107.523 20.3745C107.37 21.2747 107.193 22.1704 107.053 23.0753C106.827 23.0979 106.596 23.0844 106.37 23.0844C105.374 23.0798 104.379 23.0753 103.384 23.0664C103.171 23.0753 102.963 23.0256 102.75 23.0391C100.941 23.0481 99.1309 23.0346 97.3212 23.0346L97.3574 23.021C98.7011 22.8806 100.049 22.7223 101.393 22.5912C103.099 22.5822 104.8 22.5866 106.505 22.5912C106.56 22.5822 106.655 22.6092 106.664 22.5323C106.804 21.7994 106.94 21.0666 107.08 20.3336C107.274 19.3157 107.582 18.3113 108.057 17.3839C108.804 15.8909 109.984 14.6241 111.423 13.7826Z" fill="white" stroke="#0D69B3" stroke-width="0.0186836"/>
<path d="M113.532 13.2261C114.586 12.9275 115.685 12.8416 116.775 12.8416C117.151 12.8506 117.535 12.8235 117.906 12.8958C118.038 12.9139 118.164 12.9728 118.296 12.9637C118.508 13.1356 118.635 13.389 118.73 13.6423C118.938 14.2441 119.056 14.8684 119.155 15.4973C119.16 15.7506 119.205 16.0356 119.069 16.2664C118.942 16.4926 118.689 16.6012 118.449 16.669C117.576 16.8952 116.662 16.6826 115.789 16.8952C115.07 17.0491 114.4 17.4472 113.943 18.0218C113.405 18.6913 113.12 19.5237 112.961 20.3563C112.839 21.0982 112.686 21.8402 112.563 22.5867C112.509 22.7541 112.477 22.9351 112.446 23.1116C113.301 23.1252 114.156 23.1116 115.011 23.1206C115.337 23.1116 115.662 23.1296 115.988 23.1069C116.169 23.5232 116.128 23.9938 116.07 24.4326C115.997 24.9257 115.88 25.4143 115.658 25.8667C115.472 26.2513 115.165 26.6042 114.744 26.7399C114.527 26.8259 114.292 26.8078 114.061 26.8078C113.301 26.8078 112.541 26.8168 111.781 26.8078C111.659 27.3643 111.577 27.9343 111.468 28.4998C111.27 29.5992 111.075 30.7031 110.876 31.807C110.871 31.8433 110.867 31.9202 110.867 31.9609V31.9654C108.89 31.9654 106.917 31.97 104.94 31.9654C104.945 31.9474 104.949 31.9156 104.954 31.8975C104.958 31.8749 104.963 31.8251 104.967 31.798C104.972 31.8343 104.976 31.9021 104.981 31.9338C105.103 31.9474 105.325 32.0106 105.356 31.8343C105.664 30.1693 105.949 28.4954 106.266 26.8304C106.144 26.8033 106.017 26.8033 105.89 26.8259C105.872 26.8892 105.854 26.9525 105.831 27.0159L105.859 26.8123C104.628 26.8077 103.393 26.8123 102.162 26.8077C101.864 26.7987 101.556 26.8077 101.258 26.7715C100.746 26.7489 100.231 26.767 99.7193 26.7172C99.0859 26.7172 98.457 26.6584 97.8236 26.6584C97.326 26.6086 96.8238 26.6267 96.3216 26.6041C95.996 26.5634 95.6611 26.5814 95.3309 26.5679C94.7925 26.5091 94.2451 26.5499 93.7067 26.491C93.1367 26.4956 92.5666 26.4457 91.9966 26.4322C92.0011 26.4277 92.0056 26.4096 92.0056 26.405C92.1956 26.4096 92.3811 26.396 92.5711 26.3914C92.9919 26.3372 93.4172 26.3733 93.8379 26.3146C94.2768 26.3146 94.7111 26.2557 95.1499 26.2557C95.539 26.2015 95.9326 26.2331 96.3216 26.1788C96.7786 26.1788 97.2264 26.12 97.6835 26.1155C98.059 26.0657 98.439 26.0929 98.8145 26.0431C99.2534 26.0476 99.6877 25.9798 100.127 25.9843C100.556 25.9344 100.995 25.948 101.425 25.9028C101.384 25.7354 101.353 25.5681 101.316 25.4006C101.285 25.2965 101.158 25.3191 101.077 25.3056C100.095 25.1652 99.1177 25.025 98.1404 24.8893C98.2038 24.8394 98.2897 24.8621 98.3621 24.8532C99.1222 24.7942 99.8777 24.7263 100.638 24.6722C100.81 24.6631 100.977 24.6315 101.149 24.6269C101.072 24.3916 101.027 24.1338 100.923 23.9166C99.2987 23.6678 97.6744 23.4461 96.0548 23.1792C96.4755 23.1113 96.9008 23.0796 97.3215 23.0344C99.1312 23.0344 100.941 23.048 102.751 23.0389C102.963 23.0254 103.171 23.0751 103.384 23.0661C104.379 23.0751 105.375 23.0798 106.37 23.0841C106.596 23.0841 106.827 23.0978 107.053 23.0751C107.193 22.1703 107.37 21.2745 107.524 20.3742C107.845 18.6957 108.51 17.0489 109.641 15.7505C110.274 14.9904 111.057 14.357 111.926 13.8775C112.428 13.588 112.98 13.3935 113.532 13.2261Z" fill="#282A30" stroke="#107BD4" stroke-width="0.0186836"/>
<path d="M112.563 22.5867C113.423 22.5913 114.287 22.5821 115.151 22.5913C115.495 22.5913 115.848 22.7813 115.988 23.107C115.662 23.1296 115.337 23.1116 115.011 23.1206C114.156 23.1116 113.301 23.1252 112.446 23.1116C112.477 22.9351 112.509 22.7541 112.563 22.5867ZM105.89 26.8259C106.017 26.8033 106.144 26.8033 106.266 26.8304C105.949 28.4954 105.664 30.1693 105.356 31.8343C105.325 32.0106 105.103 31.9474 104.981 31.9338C104.976 31.9022 104.972 31.8343 104.967 31.7981C105.252 30.2056 105.528 28.6085 105.831 27.016C105.854 26.9525 105.872 26.8893 105.89 26.8259Z" fill="white" stroke="#0D69B3" stroke-width="0.0186836"/>
<path d="M112.959 6.98926C112.923 6.9214 112.918 6.83996 112.918 6.76305L112.882 6.76757C112.828 6.56851 112.66 6.37849 112.443 6.36944C112.28 6.35587 112.077 6.3604 111.982 6.51422C111.801 6.75853 111.887 7.0707 111.878 7.34667C111.878 7.36477 111.882 7.39644 111.882 7.41454C111.882 7.60003 111.86 7.781 111.828 7.96197C111.801 8.01626 111.787 8.07507 111.787 8.13841C111.71 8.56369 111.557 8.98444 111.349 9.369C111.308 9.42329 111.276 9.4821 111.263 9.54544C111.127 9.7807 110.964 9.99786 110.797 10.215C110.769 10.2376 110.747 10.2648 110.724 10.2919C110.606 10.4367 110.48 10.5589 110.349 10.6855C110.317 10.7036 110.294 10.7263 110.267 10.7444C110.113 10.8937 109.941 11.0339 109.756 11.147C109.733 11.1606 109.711 11.1787 109.683 11.1968C108.525 11.9614 107.118 12.2781 105.747 12.2916C104.585 12.3278 103.413 12.079 102.363 11.5768C102.345 11.5678 102.3 11.5497 102.282 11.5406C102.105 11.4456 101.924 11.3642 101.762 11.2465C101.725 11.2284 101.689 11.2058 101.648 11.1877C101.481 11.0882 101.323 10.9796 101.173 10.8529C101.124 10.8077 101.069 10.7715 101.015 10.7308C100.852 10.5996 100.685 10.4593 100.545 10.301C100.508 10.2603 100.472 10.2241 100.436 10.1879C99.943 9.67664 99.5584 9.0523 99.3548 8.37367C99.1602 7.83529 99.1874 7.24714 99.1648 6.68161C99.0019 6.43278 98.6581 6.29253 98.3867 6.44636C98.2735 6.52779 98.26 6.67709 98.174 6.78115C98.0338 8.27414 98.6717 9.7626 99.6896 10.8394C99.6896 10.8756 99.7077 10.8982 99.7395 10.9118C99.9205 11.0791 100.097 11.2511 100.278 11.4139C100.309 11.4456 100.346 11.4773 100.386 11.5044C100.567 11.6537 100.762 11.7895 100.952 11.9297C100.988 11.9568 101.024 11.9795 101.065 12.0021C101.314 12.1469 101.549 12.3188 101.816 12.4183C101.834 12.4319 101.866 12.4545 101.884 12.4636C102.743 12.8753 103.671 13.1558 104.621 13.2462C104.725 13.2462 104.829 13.2553 104.933 13.2779C105.386 13.3051 105.838 13.2915 106.29 13.2824C107.688 13.1603 109.132 12.821 110.299 11.9976L110.312 12.0157C110.349 11.984 110.38 11.9568 110.417 11.9297C110.602 11.794 110.783 11.6492 110.964 11.4999C111.005 11.4682 111.05 11.432 111.091 11.3913C111.29 11.1742 111.521 10.9751 111.688 10.7263L111.715 10.7398C111.729 10.7172 111.751 10.672 111.765 10.6493C111.919 10.4412 112.059 10.2241 112.195 10.0069C112.204 9.99334 112.226 9.97072 112.235 9.95714L112.217 9.93905C112.231 9.92095 112.263 9.88476 112.276 9.86666C112.525 9.35995 112.747 8.83062 112.824 8.26961C112.855 8.25604 112.873 8.2289 112.873 8.19723C112.878 8.01626 112.941 7.84434 112.923 7.66337C112.963 7.44168 112.968 7.21547 112.959 6.98926Z" fill="#282A30" stroke="white" stroke-width="0.0186836"/>
<path d="M22.2591 8.92136C22.9148 8.82242 23.6693 8.76057 24.2259 9.16875C24.5722 9.42844 24.6959 9.89846 24.6712 10.3191C24.6959 11.0118 24.3743 11.754 23.756 12.1127C23.2116 12.4096 22.5561 12.4342 21.9499 12.3724C21.5417 12.323 21.1335 12.1004 20.9233 11.7293C20.4531 10.6531 21.0345 9.13165 22.2591 8.92136ZM2.64078 9.70066C2.67783 9.32954 3.01186 8.99556 3.39528 9.008C6.25278 9.008 9.09778 9.02031 11.9428 9.008C12.2521 8.98325 12.5861 9.11925 12.7344 9.39138C12.9447 9.76251 12.7592 10.1707 12.7344 10.5542C12.6479 11.0736 12.6726 11.7664 12.0666 11.9643C9.98842 12.0261 7.91027 11.9643 5.83212 11.989C5.63423 13.3001 5.44869 14.5989 5.25071 15.8977C5.25071 15.9472 5.26315 16.0587 5.26315 16.108C6.7846 16.0957 8.30605 16.108 9.8275 16.0957C10.2481 16.0709 10.6933 16.4298 10.6562 16.875C10.6192 17.3327 10.5202 17.778 10.4584 18.2357C10.4088 18.5449 10.1615 18.8294 9.83984 18.8912C8.14517 18.9283 6.42574 18.8541 4.73124 18.9283C4.45902 20.7962 4.13739 22.6639 3.85286 24.5318C3.81586 24.9029 3.51889 25.2245 3.14781 25.2368C2.44281 25.2492 1.73765 25.2492 1.03265 25.2368C0.574984 25.2492 0.20386 24.7419 0.327507 24.309C1.08228 19.4356 1.86153 14.5744 2.64078 9.70066ZM15.2083 9.03261C15.8516 8.98321 16.5071 9.02031 17.1504 9.008C17.5463 8.98325 17.9421 9.29244 17.9791 9.70066C17.9791 10.0222 17.8925 10.3439 17.8555 10.6654C17.3359 13.9806 16.8041 17.2957 16.2845 20.6108C16.2103 21.1426 16.0742 21.7116 16.235 22.2559C16.4206 22.8001 17.2492 22.5651 17.4472 23.134C17.5709 23.5918 17.4348 24.0741 17.3977 24.5442C17.3606 25.1627 16.6555 25.2987 16.1732 25.435C15.1218 25.6328 13.8476 25.4844 13.0931 24.6184C12.5488 23.9877 12.5117 23.0969 12.6231 22.3054C13.2787 18.0997 13.9342 13.8941 14.6023 9.67591C14.6394 9.36664 14.8867 9.08215 15.2083 9.03261ZM39.7622 9.70066C39.7992 9.32954 40.1332 9.008 40.5043 9.008H42.3845C42.8546 8.99556 43.2381 9.50277 43.1267 9.948C42.6938 12.6941 42.2485 15.4402 41.8156 18.1861C42.4712 18.0872 43.2134 17.9635 43.6711 17.4317C44.4379 16.5657 45.0689 15.5639 45.5389 14.5125C45.6996 14.1043 45.7862 13.5105 46.3182 13.4363C47.0233 13.4116 47.7406 13.4239 48.4457 13.4363C48.9282 13.4239 49.2869 13.9682 49.1261 14.4134C48.9405 15.0692 48.6313 15.6752 48.3097 16.2566C47.5922 17.4194 46.8007 18.5697 45.7615 19.485C46.2192 20.858 46.8006 22.194 47.3077 23.5423C47.4561 23.9876 47.815 24.5071 47.4809 24.9401C47.0974 25.4596 46.38 25.1997 45.8481 25.2616C45.2914 25.1997 44.4874 25.4843 44.1782 24.8535C43.5968 23.5051 43.1144 22.1198 42.5206 20.7715C42.1743 20.7838 41.8156 20.7962 41.4692 20.7591C41.4445 20.8086 41.395 20.9075 41.3702 20.9571C41.1846 22.194 40.9868 23.431 40.7888 24.6679C40.7146 24.9648 40.4795 25.2246 40.158 25.2493C39.5024 25.2741 38.8344 25.2616 38.1665 25.2616C37.8819 25.2616 37.6222 25.0761 37.4985 24.8287C37.3748 24.5812 37.4489 24.2969 37.4862 24.0247C38.253 19.25 39.0076 14.4753 39.7622 9.70066ZM74.1375 11.049C74.2241 10.7025 74.558 10.4676 74.9045 10.4799C75.3993 10.4923 75.9064 10.4676 76.4135 10.4923C76.8218 10.5046 77.1433 10.9128 77.0938 11.3087C77.0196 12.0138 76.8464 12.7189 76.797 13.4238C77.2793 13.4238 77.7741 13.4115 78.2566 13.4238C78.6895 13.4238 79.0483 13.8692 78.974 14.2897C78.9121 14.6733 78.8255 15.0444 78.7637 15.4277C78.7018 15.7494 78.4298 16.0091 78.1206 16.0586C77.5268 16.0957 76.9454 16.0338 76.364 16.0957C76.1167 17.7531 75.8445 19.4106 75.5847 21.0683C75.5476 21.4518 75.5229 21.8846 75.7455 22.2187C76.0796 22.6269 76.6608 22.4783 77.131 22.5279C77.5021 22.6392 77.737 23.0475 77.6752 23.4187C77.6133 23.8391 77.601 24.2597 77.5021 24.6678C77.3536 25.1255 76.8217 25.2121 76.4134 25.3234C75.2878 25.6204 73.989 25.6204 72.9872 24.9647C72.0595 24.3338 71.9109 23.1092 72.0099 22.0702C72.2696 20.0663 72.6779 18.0748 72.9005 16.0585C72.5542 16.0708 72.1336 16.1204 71.8739 15.8111C71.577 15.5019 71.7255 15.0442 71.7749 14.6606C71.8492 14.2525 71.8367 13.7206 72.2821 13.4979C72.6407 13.3618 73.0491 13.4609 73.4325 13.4113C73.6675 12.6198 73.8901 11.8282 74.1375 11.049ZM67.1486 15.0566C67.9279 14.2774 68.868 13.6341 69.9441 13.3126C70.4142 13.1023 71.0203 13.4981 71.008 14.0177C70.9214 14.698 70.7606 15.3659 70.6492 16.0338C70.5996 16.3679 70.3152 16.6524 69.9812 16.6895C68.769 16.8997 67.7176 17.6294 66.8764 18.4954C66.6662 18.7552 66.3569 19.0026 66.3198 19.3613C66.0602 21.093 65.788 22.8248 65.5158 24.5565C65.4788 24.9275 65.157 25.2864 64.7736 25.2616H62.8934C62.4605 25.2864 62.0771 24.8535 62.1265 24.4205C62.6708 20.994 63.2151 17.5801 63.747 14.1536C63.7717 13.8073 64.0191 13.4734 64.3778 13.4362C64.8355 13.4115 65.2931 13.4238 65.7632 13.4238C66.1343 13.4238 66.4806 13.7578 66.4806 14.1413C66.4806 14.6732 66.4312 15.2174 66.4188 15.7617C66.7157 15.5763 66.9012 15.2793 67.1486 15.0566ZM20.9108 13.4857C21.5787 13.3497 22.2714 13.461 22.9394 13.4239C23.3229 13.3745 23.7311 13.6218 23.7929 14.0053C23.8425 14.3516 23.7433 14.6856 23.7062 15.0196C23.1992 18.1987 22.6919 21.3777 22.1971 24.5566C22.16 24.9155 21.8633 25.2741 21.4797 25.2617C20.8118 25.2617 20.1438 25.2741 19.4636 25.2494C19.043 25.1998 18.7337 24.7176 18.8451 24.3092C19.377 21.0067 19.8842 17.7163 20.4161 14.4135C20.4408 14.0548 20.5397 13.6341 20.9108 13.4857ZM60.939 13.6466C59.0959 13.3002 57.2158 13.0528 55.3479 13.2383C53.678 13.4487 51.9957 14.2032 50.9691 15.5763C49.5466 17.3822 49.0641 19.8067 49.3857 22.058C49.5589 23.1341 50.0289 24.2227 50.9072 24.8906C51.7236 25.5215 52.8245 25.608 53.8141 25.4472C55.1994 25.175 56.3745 24.2846 57.3395 23.295C57.3889 23.7155 57.2899 24.1361 57.3147 24.5443C57.3395 24.9277 57.6858 25.2864 58.0692 25.2616H59.331C59.7021 25.2616 60.0114 24.9154 60.0361 24.5566C60.568 21.2044 61.0998 17.8646 61.6194 14.5248C61.6935 14.1042 61.3597 13.696 60.939 13.6466ZM57.4632 19.4727C56.9684 20.4004 56.2756 21.2416 55.4963 21.9589C55.0511 22.33 54.482 22.7135 53.876 22.5899C53.2822 22.4662 52.9977 21.8477 52.8617 21.3158C52.5525 19.9304 52.837 18.4212 53.6162 17.2214C53.9625 16.6647 54.5191 16.2442 55.1624 16.071C56.0653 15.8483 57.0179 15.9596 57.8962 16.207L57.9456 16.2566C57.8343 17.3327 57.624 18.3965 57.4632 19.4727ZM36.6574 17.6173C36.645 16.3803 36.3111 15.0815 35.4452 14.1537C34.8515 13.4981 33.9608 13.1642 33.095 13.1764C31.66 13.1271 30.3118 13.8322 29.2604 14.7722C29.0253 14.9578 28.8645 15.2299 28.6048 15.3783C28.6048 14.97 28.6419 14.5619 28.6294 14.1414C28.6419 13.7578 28.2831 13.4239 27.912 13.4239H26.6503C26.2545 13.4239 25.9329 13.7703 25.9081 14.1537C25.1288 19.1016 24.3373 24.0494 23.5579 28.9973C23.4467 29.455 23.8426 29.9251 24.3126 29.9127C25.0052 29.9003 25.7103 29.9622 26.3906 29.8631C26.9349 29.7146 26.9225 29.0838 27.0091 28.6262C27.207 27.5376 27.3432 26.4491 27.4668 25.3481C29.9036 25.8182 32.7363 25.4967 34.5546 23.6535C36.0389 22.0332 36.7316 19.7943 36.6574 17.6173ZM33.1939 18.8665C33.1198 20.0046 32.7115 21.155 31.9199 21.9836C30.8933 22.9609 29.3345 22.8248 28.0729 22.4909C28.0483 22.4537 28.011 22.3795 27.9987 22.3425C28.1966 21.2663 28.2956 20.1777 28.543 19.114C29.2357 17.976 30.0767 16.8255 31.2766 16.1948C31.7219 15.9845 32.328 16.034 32.6497 16.4422C33.1939 17.1225 33.2434 18.0378 33.1939 18.8665Z" fill="white"/>
</svg>
